<svg className="status-icon" width="20" height="20" viewBox="0 0 24 24" fill="none" xmlns="http://www.w3.org/2000/svg">
    <path d="M12 2C6.48 2 2 6.48 2 12C2 17.52 6.48 22 12 22C17.52 22 22 17.52 22 12C22 6.48 17.52 2 12 2ZM12 20C7.59 20 4 16.41 4 12C4 7.59 7.59 4 12 4C16.41 4 20 7.59 20 12C20 16.41 16.41 20 12 20Z" fill="#22c55e"/>
    <path d="M15 16H9V15H15V16ZM11 8C13.76 8 16 8.9 16 10V11C16 12.1 13.76 13 11 13C8.24 13 6 12.1 6 11V10C6 8.9 8.24 8 11 8ZM11 14.5C13.76 14.5 16 13.6 16 12.5V13.5C16 14.6 13.76 15.5 11 15.5C8.24 15.5 6 14.6 6 13.5V12.5C6 13.6 8.24 14.5 11 14.5ZM11 9.5C8.79 9.5 7 10.21 7 10.75V10.75C7 11.29 8.79 12 11 12C13.21 12 15 11.29 15 10.75V10.75C15 10.21 13.21 9.5 11 9.5Z" fill="#22c55e"/>
    <path d="M17 10C19.21 10 21 10.9 21 12V17C21 18.1 19.21 19 17 19C14.79 19 13 18.1 13 17V12C13 10.9 14.79 10 17 10ZM17 11.5C15.21 11.5 14 12.21 14 12.75V12.75C14 13.29 15.21 14 17 14C18.79 14 20 13.29 20 12.75V12.75C20 12.21 18.79 11.5 17 11.5ZM17 17.5C18.79 17.5 20 16.79 20 16.25V15C20 15.55 18.79 16.25 17 16.25C15.21 16.25 14 15.55 14 15V16.25C14 16.79 15.21 17.5 17 17.5ZM17 15.5C18.79 15.5 20 14.79 20 14.25V13C20 13.55 18.79 14.25 17 14.25C15.21 14.25 14 13.55 14 13V14.25C14 14.79 15.21 15.5 17 15.5Z" fill="#22c55e"/>
</svg> 